# xmcd CD database file
#
# Track frame offsets:
#	150
#	31873
#	55491
#	86087
#	116562
#	150538
#	178282
#	221072
#
# Disc length: 3331 seconds
#
# Revision: 0
# Processed by: cddbd v1.4PL0 Copyright (c) Steve Scherf et al.
# Submitted via: CDex 1.50
#
DISCID=6d0d0108
DTITLE=Various Artist - calle 54 - disco A
DYEAR=1900
DGENRE=Blues
TTITLE0=paquito d'rivera/panamericana
TTITLE1=eliane elias/Samba triste
TTITLE2=chano dominguez/oye como viene
TTITLE3=jerry gonzalez and the fort apache band/earth dance
TTITLE4=michel camilo/ from within
TTITLE5=gato barbieri/introduccion, llamerito y tango/bolivia
TTITLE6=tito puente/new arrival
TTITLE7=chucho valdes/caridad amaro
EXTD=
EXTT0=
EXTT1=
EXTT2=
EXTT3=
EXTT4=
EXTT5=
EXTT6=
EXTT7=
PLAYORDER=
